<mxfile host="app.diagrams.net" modified="2023-06-10T04:27:58.364Z" agent="Mozilla/5.0 (Windows NT 10.0; Win64; x64) AppleWebKit/537.36 (KHTML, like Gecko) Chrome/114.0.0.0 Safari/537.36 Edg/114.0.1823.43" version="21.3.8" etag="dy6H0_q18wThT3ajXHSO" type="github">
  <diagram name="PÃ¡gina-1" id="Xadpk8cb5l-uPJ-eYiBG">
    <mxGraphModel>
      <root>
        <mxCell id="0" />
        <mxCell id="1" parent="0" />
      </root>
    </mxGraphModel>
  </diagram>
</mxfile>
